<svg xmlns="http://www.w3.org/2000/svg" xmlns:xlink="http://www.w3.org/1999/xlink" width="1027.577" height="1068.458" viewBox="0 0 1027.577 1068.458">
  <defs>
    <style>
      .cls-1 {
        fill: #ff7329;
        opacity: 0.03;
      }

      .cls-2 {
        fill: url(#linear-gradient);
      }
    </style>
    <linearGradient id="linear-gradient" x1="0.5" x2="0.5" y2="1" gradientUnits="objectBoundingBox">
      <stop offset="0" stop-color="#ff7329"/>
      <stop offset="1" stop-color="#ffc66c"/>
    </linearGradient>
  </defs>
  <g id="Group_5" data-name="Group 5" transform="translate(-892.423 0)">
    <path id="Subtraction_5" data-name="Subtraction 5" class="cls-1" d="M389.748,1435.458a348.472,348.472,0,0,1-215.24-74.212l-40.976-32.014a355.7,355.7,0,0,1-27.087-23.456A349.481,349.481,0,0,1,52.6,867.258a355.834,355.834,0,0,1,20.608-29.312L441.151,367h585.426V839.14L665.793,1300.923a355.174,355.174,0,0,1-27.41,31.145,350.206,350.206,0,0,1-248.635,103.39Z" transform="translate(893.423 -367)"/>
    <g id="Group_4" data-name="Group 4">
      <path id="Subtraction_3" data-name="Subtraction 3" class="cls-2" d="M361.1,1435.286a348.476,348.476,0,0,1-215.241-74.212c-5.754-4.494-11.443-9.229-16.909-14.073H180.5a5.5,5.5,0,0,0,0-11H117.094c-4.654-4.522-9.238-9.232-13.625-14H189.5a8.5,8.5,0,0,0,0-17H88.807c-5.219-6.46-10.265-13.189-15-20H38a5,5,0,0,1,0-10H67.11c-2.539-3.936-5.027-7.974-7.4-12H7.5a8.5,8.5,0,0,1,0-17H50.331a349.546,349.546,0,0,1,35.2-376.212L86.93,868H189.5a8.5,8.5,0,0,0,0-17H100.212L324.441,564H277a5,5,0,1,1,0-10h55.254l10.157-13H250.5a8.5,8.5,0,0,1,0-17H355.693l46.1-59H947V904.15L809.611,1080H648.5a7.5,7.5,0,1,0,0,15H797.891L637.141,1300.752c-4.874,6.237-10.01,12.377-15.266,18.248H667.5a8.5,8.5,0,0,1,0,17H605.6c-3.84,3.751-7.809,7.452-11.8,11h50.7a5.5,5.5,0,1,1,0,11H580.82a348.013,348.013,0,0,1-104.093,57.747A351.955,351.955,0,0,1,361.1,1435.286Z" transform="translate(973 -465)"/>
    </g>
  </g>
</svg>
