<svg xmlns="http://www.w3.org/2000/svg" xmlns:xlink="http://www.w3.org/1999/xlink" width="1920" height="536.204" viewBox="0 0 1920 536.204">
  <defs>
    <linearGradient id="linear-gradient" y1="1.42" x2="0.873" y2="0.025" gradientUnits="objectBoundingBox">
      <stop offset="0" stop-color="#ffc269"/>
      <stop offset="1" stop-color="#ff7a2f"/>
    </linearGradient>
  </defs>
  <path id="Subtraction_6" d="M-427.587,580.2h0a141.1,141.1,0,0,1-22.085-1.784,152.958,152.958,0,0,1-17.746-3.923,119.306,119.306,0,0,1-16.109-5.706c-.53-.255-13.22-6.349-34.971-15.656-20.333-8.7-52.9-22.034-92.587-36.15-44.6-15.865-88.917-29.463-131.711-40.415-25.407-6.5-50.556-12.134-74.749-16.736-26.61-5.062-52.717-9-77.595-11.717-37.559-4.095-75.761-7.218-113.547-9.283-38.711-2.115-78.223-3.188-117.437-3.188-36.015,0-72.859.9-109.508,2.686-37.3,1.814-75.544,4.593-113.675,8.26-38.742,3.726-78.554,8.484-118.33,14.14-40.355,5.739-81.9,12.577-123.476,20.325a255.931,255.931,0,0,1-25.625,3.377c-8.766.726-18.094,1.095-27.725,1.1-11.478,0-23.734-.522-36.429-1.552-12.343-1-25.442-2.51-38.931-4.485-25.8-3.778-54.056-9.407-83.976-16.733-28.043-6.866-58.26-15.4-89.812-25.352-29.365-9.266-60.611-20-92.87-31.894-57.043-21.038-118.881-46.309-183.8-75.111-52.494-23.291-107.225-48.984-162.674-76.365V44h1920V579.36A125.9,125.9,0,0,1-427.587,580.2Z" transform="translate(2332.953 -44)" fill="url(#linear-gradient)"/>
</svg>
